<?xml version="1.0" standalone="no"?>
<!DOCTYPE svg PUBLIC "-//W3C//DTD SVG 1.1//EN" "http://www.w3.org/Graphics/SVG/1.1/DTD/svg11.dtd" >
<svg xmlns="http://www.w3.org/2000/svg">
<metadata></metadata>
<defs>
<font id="ds_freesetitalic" horiz-adv-x="1269" >
<font-face units-per-em="2048" ascent="1638" descent="-410" />
<missing-glyph horiz-adv-x="481" />
<glyph horiz-adv-x="0" />
<glyph unicode="&#xd;" horiz-adv-x="2048" />
<glyph unicode=" "  horiz-adv-x="481" />
<glyph unicode="&#x09;" horiz-adv-x="481" />
<glyph unicode="&#xa0;" horiz-adv-x="481" />
<glyph unicode="!" horiz-adv-x="576" d="M207 0l35 178h170l-35 -178h-170zM300 362l194 1086h170l-244 -1086h-120z" />
<glyph unicode="&#x22;" horiz-adv-x="679" d="M371 1090l26 358h197l-118 -358h-105zM647 1090l28 358h196l-119 -358h-105z" />
<glyph unicode="#" horiz-adv-x="1338" d="M201 414l43 119h234l153 410h-234l45 121h235l119 326h96l-120 -326h339l120 320l95 6l-120 -326h233l-45 -121h-234l-153 -410h234l-43 -119h-234l-120 -327h-96l121 327h-340l-119 -327h-96l120 327h-233zM573 533h339l154 410h-340z" />
<glyph unicode="$" d="M221 52l42 134q162 -82 335 -79l120 590q-157 76 -228 159q-68 81 -68 178q0 93 41.5 180.5t124.5 144.5q54 41 129 66t154 31l35 170h91l-33 -166q155 0 306 -51l-46 -128q-132 61 -285 61l-110 -537q61 -32 128 -75t105 -81q84 -84 84 -201q0 -84 -39.5 -166 t-105.5 -146q-59 -56 -144 -96.5t-193 -45.5l-33 -172h-91l33 166q-184 -6 -352 64zM569 1068q0 -72 58 -131q27 -24 64 -48t57 -33l98 480q-94 -14 -157 -55q-51 -31 -85.5 -83.5t-34.5 -129.5zM689 116q170 38 244 134q14 17 25 37t19.5 41.5t13 44.5t4.5 45q0 96 -89 166 q-3 2 -17.5 11.5t-37.5 23.5t-52 28z" />
<glyph unicode="%" horiz-adv-x="1826" d="M257 979q0 102 38 196t102 163q116 122 294 122q71 0 123 -21t92 -73q60 -77 60 -191q0 -180 -105 -317q-129 -171 -332 -171q-130 0 -204 85q-68 76 -68 207zM320 56l1302 1404l68 -68l-1299 -1404zM387 971q0 -80 31 -125q39 -56 132 -56q56 0 100.5 19.5t85.5 63.5 q48 53 73.5 138t25.5 162q0 82 -36 128q-45 55 -128 55q-112 0 -185 -81q-26 -28 -44.5 -67t-25.5 -64.5t-17 -69.5q-12 -71 -12 -103zM1050 279q0 102 38.5 196.5t103.5 163.5q116 123 293 123q70 0 122.5 -22t92.5 -74q60 -78 60 -190q0 -179 -106 -316 q-128 -172 -330 -172q-132 0 -205 85q-69 76 -69 206zM1181 271q0 -80 31 -125q39 -55 132 -55q110 0 187 83q48 54 73.5 138.5t25.5 161.5q0 81 -37 128q-45 56 -126 56q-112 0 -186 -83q-26 -28 -44.5 -67t-25.5 -64.5t-17 -68.5q-13 -77 -13 -104z" />
<glyph unicode="&#x26;" horiz-adv-x="1513" d="M221 331q0 35 6 69.5t18 69t30.5 67t44 64.5t57.5 61q54 47 133 89.5t159 67.5q-28 33 -44 52t-37.5 51t-33.5 57t-20.5 58t-8.5 66q0 82 41 158t121 129q114 74 275 74q141 0 219 -59q96 -76 96 -201q0 -47 -13.5 -90.5t-37 -79t-52.5 -66.5t-65 -56t-70 -44.5t-70 -35 t-63 -25.5t-52 -17l304 -439q73 90 133 220q50 112 79 234h136q-39 -144 -103 -284q-38 -81 -80.5 -143t-100.5 -123l181 -255h-179l-107 160q-101 -89 -218 -132.5t-264 -43.5q-196 0 -300 91q-51 44 -82.5 111t-31.5 145zM369 335q0 -112 87 -177q75 -57 197 -57 q39 0 80.5 6t96 21t114.5 47.5t115 79.5l-341 483q-69 -24 -141 -67.5t-113 -89.5q-45 -49 -70 -113t-25 -133zM671 1121q0 -93 67 -178l58 -74q114 35 222 112q119 90 119 205q0 77 -49 117q-49 43 -145 43q-111 0 -183 -51q-28 -20 -48 -46.5t-30.5 -59t-10.5 -68.5z" />
<glyph unicode="'" horiz-adv-x="402" d="M371 1090l26 358h197l-118 -358h-105z" />
<glyph unicode="(" horiz-adv-x="872" d="M333 490q0 150 34 283t101 271q63 134 148 254.5t265 339.5h118q-75 -92 -159.5 -212.5t-140.5 -215.5q-71 -121 -118 -229.5t-68 -202t-28 -162.5t-7 -150q0 -42 1.5 -80.5t3.5 -64t6.5 -60.5t7 -49t8.5 -50.5t8 -45.5q32 -159 89 -321h-101q-71 151 -114 306 q-54 190 -54 389z" />
<glyph unicode=")" horiz-adv-x="872" d="M188 -205q204 273 286 432q124 230 168.5 393.5t44.5 332.5q0 162 -34 326q-40 181 -113 359h118q72 -179 124 -337q51 -176 51 -364q0 -70 -8.5 -138.5t-31.5 -160t-72.5 -201.5t-122.5 -228q-58 -93 -143.5 -207t-164.5 -207h-102z" />
<glyph unicode="*" horiz-adv-x="1040" d="M356 933l279 137l2 4l-225 134l78 101l211 -149l4 3l47 285h119l-62 -283l2 -5l271 149l39 -105l-282 -134l3 -2l224 -135l-79 -102l-213 154l-2 -4l-46 -288h-120l65 282l-5 4l-263 -152z" />
<glyph unicode="+" horiz-adv-x="1540" d="M284 681v115h579v580h116v-580h578v-115h-578v-580h-116v580h-579z" />
<glyph unicode="," horiz-adv-x="647" d="M122 -267l205 451h182l-244 -451h-143z" />
<glyph unicode="-" horiz-adv-x="868" d="M308 497l23 109h455l-22 -109h-456z" />
<glyph unicode="." horiz-adv-x="582" d="M207 0l35 178h170l-35 -178h-170z" />
<glyph unicode="/" horiz-adv-x="981" d="M-144 -488l1234 1973l83 -37l-1235 -1973z" />
<glyph unicode="0" d="M277 410q0 163 33 314q76 401 242 579q82 89 174.5 125t210.5 36q207 0 306 -124q85 -105 85 -298q0 -130 -27.5 -290t-84 -317.5t-126.5 -246.5q-162 -204 -428 -204q-192 0 -293 121q-92 112 -92 305zM424 389q0 -67 13 -120t51 -93q65 -75 189 -75q95 0 168 39 t134 129q31 45 60.5 110.5t51 136.5t39.5 147t29.5 146t17.5 129.5t6 101.5q0 161 -70 237q-37 42 -83 55.5t-101 13.5q-100 0 -171.5 -43t-130.5 -124q-99 -137 -163 -455q-40 -187 -40 -335z" />
<glyph unicode="1" d="M517 1186l379 262h130l-294 -1448h-136l262 1289l-283 -199z" />
<glyph unicode="2" d="M197 0l24 126q141 115 327.5 283.5t282.5 269.5q36 37 60 64t59.5 69t58.5 79t46 81t34.5 88.5t11.5 87.5q0 32 -6 58t-17.5 44.5t-20 28.5t-21.5 22q-57 45 -180 45q-165 0 -341 -82v118q176 82 358 82q88 0 156 -19t108 -49t66 -71.5t35 -81t9 -83.5q0 -53 -13.5 -108 t-32.5 -100t-54.5 -97.5t-63 -88.5t-75 -86t-73.5 -76t-74 -73q-237 -226 -480 -411l-2 -4l717 2l-24 -118h-875z" />
<glyph unicode="3" d="M154 49l45 127q148 -75 308 -75q232 0 362 120q45 42 76.5 104.5t31.5 142.5q0 101 -67 163q-74 62 -207 62h-213l25 118h211q89 0 166.5 34t127.5 88q18 19 33 42.5t26 50t17.5 55t6.5 54.5q0 87 -65 148q-68 63 -207 63q-193 0 -359 -71l14 125q176 64 364 64 q196 0 289 -84q50 -41 77 -100t27 -122q0 -59 -21.5 -123.5t-63.5 -116.5q-45 -58 -115 -99t-147 -61v-8q94 -14 161 -84q66 -68 66 -188q0 -112 -45 -201.5t-118 -152.5q-159 -140 -455 -140q-96 0 -178.5 14.5t-172.5 50.5z" />
<glyph unicode="4" d="M192 345l25 125l857 978h194l-198 -984h221l-25 -119h-222l-69 -345h-138l71 345h-716zM362 462l112 2h459l149 732l29 128h-6l-91 -118l-570 -652l-82 -88v-4z" />
<glyph unicode="5" d="M250 41l29 129q147 -69 305 -69q104 0 183.5 27.5t148.5 96.5q126 126 126 292q0 131 -91 197q-10 8 -26 16t-45 18.5t-76.5 17t-104.5 6.5q-155 0 -304 -38l145 714h773l-22 -118h-638l-94 -461q89 21 191 21q210 0 318 -89q30 -24 56 -59.5t46 -93.5t20 -123 q0 -34 -4 -68t-17.5 -80t-35.5 -88.5t-61 -89.5t-91 -87q-167 -128 -414 -128q-166 0 -317 57z" />
<glyph unicode="6" d="M284 399q0 121 29 274t78 274q23 59 48.5 108.5t61 103.5t84 103.5t106.5 89.5q90 60 189 86t218 26q111 0 268 -31l-38 -122q-61 22 -114 28.5t-120 6.5q-119 0 -206.5 -29.5t-171.5 -102.5q-66 -58 -115 -137.5t-76 -153.5t-49 -168l-10 -46h2q76 102 181 154 q105 51 207 51q186 0 283 -103q23 -24 40.5 -53t30 -62t19 -70t6.5 -76q0 -120 -50 -233t-133 -195q-79 -75 -171 -106.5t-208 -31.5q-73 0 -137 18t-122 69q-130 117 -130 328zM430 358q0 -114 77 -190q69 -67 178 -67q91 0 173 41.5t137 114.5q29 39 50.5 89.5t32 100.5 t10.5 95q0 110 -66 180q-71 74 -195 74q-22 0 -46 -3t-62 -14t-72 -29t-72.5 -52.5t-67.5 -81.5q-77 -120 -77 -258z" />
<glyph unicode="7" d="M366 0l840 1330h-744l22 118h890l-26 -124l-827 -1324h-155z" />
<glyph unicode="8" d="M211 312q0 183 180 315q108 78 254 119v6q-47 21 -94.5 55.5t-76.5 75.5q-29 37 -43.5 85t-14.5 94q0 50 14 100t51 105t94 97q137 100 337 100q87 0 160.5 -16.5t129.5 -65.5q48 -40 71.5 -95t23.5 -114q0 -144 -116 -263q-96 -102 -261 -166v-2q108 -42 172 -91 q59 -46 84.5 -100.5t25.5 -130.5q0 -153 -124 -278q-58 -56 -125 -91.5t-141 -51t-163 -15.5q-183 0 -302 78q-136 90 -136 250zM360 327q0 -92 66 -153q88 -73 236 -73q145 0 254 71q67 46 102.5 109t35.5 126q0 91 -73 156q-26 22 -69 47t-86.5 44t-81.5 31 q-136 -42 -235 -108q-149 -99 -149 -250zM563 1046q0 -22 3.5 -41t17.5 -46.5t39 -52.5t72 -54t112 -56q73 30 152 81.5t119 99.5q72 83 72 188q0 77 -58 132q-59 49 -174 49q-178 0 -271 -93q-84 -84 -84 -207z" />
<glyph unicode="9" d="M219 14l38 122q107 -35 227 -35q73 0 131.5 9.5t125.5 40t128 82.5q184 164 246 495h-6q-69 -97 -171 -146t-210 -49q-179 0 -282 106q-97 105 -97 253q0 126 50 241t132 193q145 138 371 138q188 0 293.5 -107t105.5 -309q0 -191 -60 -403q-70 -249 -182 -393 q-51 -69 -123.5 -126.5t-155.5 -92.5q-117 -49 -302 -49q-119 0 -259 30zM497 906q0 -118 64 -182q31 -33 79.5 -53t107.5 -20q40 0 79.5 8.5t84.5 27.5t88.5 56t77.5 88q76 111 76 253q0 130 -78 199q-73 63 -180 63q-52 0 -103 -15t-92 -40t-74 -58q-61 -61 -95.5 -150 t-34.5 -177z" />
<glyph unicode=":" horiz-adv-x="582" d="M207 0l35 178h170l-35 -178h-170zM387 883l35 179h170l-35 -179h-170z" />
<glyph unicode=";" horiz-adv-x="647" d="M122 -267l205 451h182l-244 -451h-143zM453 883l35 179h170l-36 -179h-169z" />
<glyph unicode="&#x3c;" horiz-adv-x="1263" d="M219 730l1190 666l-23 -117l-972 -549l749 -548l-26 -118z" />
<glyph unicode="=" horiz-adv-x="1461" d="M244 492v116h1274v-116h-1274zM244 869v116h1274v-116h-1274z" />
<glyph unicode="&#x3e;" horiz-adv-x="1267" d="M134 64l26 118l971 548l-748 549l22 117l921 -666z" />
<glyph unicode="?" horiz-adv-x="914" d="M304 0l35 178h170l-35 -178h-170zM356 1293l27 128q132 43 272 43q181 0 284 -78q99 -83 99 -221q0 -107 -70 -216q-27 -40 -65 -83.5t-62.5 -66.5t-79.5 -72t-70 -63q-69 -62 -111.5 -116.5t-58.5 -123.5l-12 -62h-118l12 62q10 50 31.5 95.5t57.5 89.5t65 73.5t78 75.5 q4 3 11 9q39 35 58.5 53.5t48.5 48.5t50.5 57.5t38.5 58.5q50 85 50 163q0 101 -73 153q-59 45 -182 45q-147 0 -281 -53z" />
<glyph unicode="@" horiz-adv-x="1648" d="M238 699q0 112 32.5 216t83 183t120.5 147q119 115 262.5 167t317.5 52q136 0 255.5 -35t221.5 -126q62 -56 103.5 -118.5t61 -126t26.5 -117t7 -114.5q0 -217 -93 -357q-62 -93 -144.5 -136.5t-165.5 -43.5q-88 0 -138.5 51.5t-33.5 132.5h-4q-22 -35 -51 -65.5 t-66.5 -58t-85.5 -44t-99 -16.5q-128 0 -199 79q-86 87 -86 241q0 255 161 416q60 57 124.5 86t150.5 29q53 0 94 -13.5t67.5 -37.5t42 -47.5t28.5 -53.5l24 138h121l-108 -620q-12 -55 4 -83.5t68 -28.5q60 0 120.5 45t102.5 119q63 116 63 264q0 78 -20 151t-56.5 134 t-87.5 110q-78 74 -188 113t-226 39q-129 0 -261 -50.5t-228 -142.5q-94 -93 -145.5 -218.5t-51.5 -255.5q0 -148 53.5 -269t145.5 -199q51 -46 117.5 -79.5t156 -54t189.5 -20.5q155 0 352 61v-101q-42 -14 -85 -25t-80 -18t-69 -11.5t-60 -6.5t-44 -2.5t-29 -0.5 q-155 0 -297.5 48t-249.5 145q-107 95 -165.5 232t-58.5 297zM683 618q0 -92 37 -148q53 -71 147 -71q140 0 234 136q28 42 47.5 90.5t26.5 89.5t9 61t2 33q0 83 -30 132q-53 91 -155 91q-43 0 -84.5 -15t-80.5 -45t-70 -74q-41 -55 -62 -128.5t-21 -151.5z" />
<glyph unicode="A" horiz-adv-x="1389" d="M31 0l869 1448h178l281 -1448h-143l-79 399h-715l-240 -399h-151zM492 517h625l-128 660l-21 136h-4l-74 -136z" />
<glyph unicode="B" horiz-adv-x="1196" d="M207 0l294 1448h364q42 0 75.5 -2.5t77.5 -12t83.5 -31.5t71.5 -56q70 -70 70 -202q0 -105 -49 -193q-39 -66 -112 -119.5t-172 -76.5v-5q107 -19 174 -103q62 -82 62 -194q0 -75 -25.5 -144.5t-66 -120.5t-92.5 -89q-36 -26 -76.5 -44.5t-77 -29t-78 -16.5t-72 -7.5 t-66.5 -1.5h-385zM369 118h219q91 0 167 18.5t139 74.5q105 98 105 245q0 103 -58 160q-72 73 -223 73h-234zM507 807h231q113 0 207 58q62 40 106.5 115t44.5 161q0 88 -62 138q-63 51 -184 51h-236z" />
<glyph unicode="C" horiz-adv-x="1267" d="M252 584q0 153 52.5 301t145.5 265q254 314 704 314q174 0 325 -53l-38 -124q-146 59 -289 59q-89 0 -181.5 -23.5t-184.5 -74.5t-164 -123q-65 -67 -114 -151t-79 -188.5t-30 -212.5q0 -217 136 -354q126 -118 342 -118q188 0 372 69l-27 -131q-168 -55 -355 -55 q-296 0 -455 158q-72 72 -116 184t-44 258z" />
<glyph unicode="D" horiz-adv-x="1431" d="M207 0l294 1448h353q60 0 109 -3t112.5 -13.5t121.5 -34.5t104 -61q178 -138 178 -424q0 -190 -62 -359.5t-174 -289.5q-251 -263 -682 -263h-354zM369 118h202q21 0 41.5 1t62.5 6t80.5 13.5t90.5 26.5t98 42t97 62.5t93.5 86t82.5 114t68 144.5q47 130 47 272 q0 103 -29 188.5t-83 139.5q-32 32 -72.5 55t-76.5 34.5t-85.5 18t-83 7.5t-85.5 1h-203z" />
<glyph unicode="E" horiz-adv-x="1052" d="M207 0l294 1448h703l-23 -118h-567l-107 -523h539l-22 -118h-540l-115 -571h606l-26 -118h-742z" />
<glyph unicode="F" horiz-adv-x="981" d="M207 0l294 1448h693l-23 -118h-557l-107 -523h525l-23 -118h-525l-141 -689h-136z" />
<glyph unicode="G" horiz-adv-x="1480" d="M250 581q0 184 79.5 364t231.5 310q131 115 271 162t314 47q112 0 207 -18.5t194 -59.5l-45 -129q-171 89 -350 89q-102 0 -199 -27t-189 -84.5t-166 -142.5q-97 -109 -149 -247t-52 -272q0 -95 32.5 -183.5t93.5 -151.5q66 -66 170 -101.5t229 -35.5q149 0 288 51 l99 487h-352l24 119h488l-141 -694q-214 -80 -436 -80q-138 0 -254 34t-194 104q-85 74 -139.5 192.5t-54.5 266.5z" />
<glyph unicode="H" horiz-adv-x="1439" d="M207 0l294 1448h136l-128 -639h752l129 639h136l-293 -1448h-137l141 691h-753l-141 -691h-136z" />
<glyph unicode="I" horiz-adv-x="549" d="M207 0l294 1448h136l-294 -1448h-136z" />
<glyph unicode="J" horiz-adv-x="725" d="M31 4l38 120q64 -23 126 -23q111 0 180 77q34 38 52 82t31 102l219 1086h136l-223 -1101q-8 -38 -17 -69.5t-27.5 -76t-49.5 -83.5t-72 -69q-91 -67 -238 -67q-71 0 -155 22z" />
<glyph unicode="K" horiz-adv-x="1222" d="M207 0l294 1448h136l-134 -668h2l782 668h177l-825 -698l614 -750h-179l-553 693l-27 39l-2 -2l-149 -730h-136z" />
<glyph unicode="L" horiz-adv-x="975" d="M207 0l294 1448h136l-268 -1330h591l-25 -118h-728z" />
<glyph unicode="M" horiz-adv-x="1935" d="M207 0l294 1448h213l254 -1126l21 -192h8l99 192l710 1126h217l-294 -1448h-136l227 1121l45 197h-8l-109 -191l-710 -1127h-140l-251 1127l-31 191h-8l-265 -1318h-136z" />
<glyph unicode="N" horiz-adv-x="1494" d="M207 0l294 1448h176l467 -1171l37 -133h5l260 1304h137l-294 -1448h-176l-462 1148l-45 155h-6l-25 -168l-232 -1135h-136z" />
<glyph unicode="O" horiz-adv-x="1546" d="M246 552q0 187 63 361.5t185 306.5q231 244 568 244q134 0 236 -40t167 -115t97.5 -178.5t32.5 -232.5q0 -210 -66 -376.5t-177 -288.5q-114 -123 -253.5 -186t-316.5 -63q-270 0 -411 172q-125 149 -125 396zM393 531q0 -186 87 -293q18 -24 44 -46t63.5 -43.5t90 -34.5 t112.5 -13q146 0 285 79t232 221q68 105 104.5 239t36.5 278q0 184 -87 292q-113 136 -311 136q-143 0 -279 -75t-236 -225q-14 -20 -34 -58.5t-46.5 -104.5t-44 -160t-17.5 -192z" />
<glyph unicode="P" horiz-adv-x="1099" d="M207 0l294 1448h366q196 0 293 -116q69 -85 69 -213q0 -85 -28 -170t-84 -155q-145 -182 -399 -182h-250l-125 -612h-136zM492 730h213q192 0 298 124q39 49 63 117t24 134q0 98 -56 156q-26 30 -66 46t-70 19.5t-71 3.5h-213z" />
<glyph unicode="Q" horiz-adv-x="1546" d="M246 552q0 123 27 240.5t83 228t138 199.5q114 123 262.5 183.5t300.5 60.5q134 0 228 -37q59 -23 107.5 -57.5t80 -72t55 -83.5t36 -86.5t20 -86.5t9.5 -77.5t2 -65.5q0 -98 -15 -187.5t-38.5 -159.5t-59 -134t-70 -110t-79 -88.5t-77.5 -69t-74.5 -52t-62 -36 t-45.5 -22.5l270 -308h-190l-238 263q-62 -10 -140 -10q-262 0 -405 172q-125 146 -125 396zM393 531q0 -186 87 -293q18 -24 44 -46t63.5 -43.5t90 -34.5t112.5 -13q150 0 286.5 78.5t230.5 221.5q141 213 141 503q0 87 -12.5 152.5t-51.5 126.5q-22 33 -52 60.5 t-70.5 51.5t-95 37.5t-116.5 13.5q-142 0 -277.5 -75t-237.5 -225q-68 -105 -105 -239t-37 -276z" />
<glyph unicode="R" horiz-adv-x="1246" d="M207 0l294 1448h362q38 0 70 -2.5t72.5 -10.5t79 -27t69.5 -47q89 -77 89 -236q0 -154 -97 -258q-44 -49 -111.5 -86.5t-148.5 -56.5q54 -19 82 -62q7 -12 13 -23.5t10.5 -24t6.5 -20.5t5.5 -23.5t5.5 -22.5l132 -548h-140l-128 535q-8 37 -19.5 61.5t-38.5 42.5 q-42 30 -124 30h-211l-137 -669h-136zM503 786h200q97 0 173 35.5t127 86.5q95 95 95 221q0 85 -46 132q-30 34 -83 51.5t-108 17.5h-247z" />
<glyph unicode="S" horiz-adv-x="1025" d="M114 47l42 135q158 -81 312 -81q76 0 152.5 24t131.5 70q53 43 85 104t32 125q0 88 -75 157q-42 38 -192 126l-12 6q-40 23 -62 36t-56 40.5t-62 58.5q-43 47 -64 91.5t-21 106.5q0 98 47.5 188.5t132.5 147.5q125 82 343 82q171 0 315 -51l-46 -128q-132 61 -284 61 q-178 0 -272 -82q-40 -39 -64.5 -90t-24.5 -108q0 -80 59 -137q33 -32 187 -126q55 -32 84 -50t71 -50.5t68 -63.5q75 -85 75 -201q0 -101 -52 -194t-131 -153q-144 -107 -383 -107q-174 0 -336 63z" />
<glyph unicode="T" horiz-adv-x="1066" d="M302 1330l23 118h1005l-23 -118h-434l-271 -1330h-136l270 1330h-434z" />
<glyph unicode="U" horiz-adv-x="1482" d="M304 377q0 61 10 105l197 966h136l-194 -962q-13 -64 -13 -111q0 -119 75 -191q92 -83 255 -83q154 0 278 85q84 58 127.5 130t63.5 170l194 962h137l-196 -966q-29 -137 -86.5 -233.5t-170.5 -167.5q-86 -54 -174 -75.5t-191 -21.5q-92 0 -173 20.5t-149 80.5 q-126 108 -126 292z" />
<glyph unicode="V" horiz-adv-x="1346" d="M335 1448h145l219 -1150l10 -168h5l85 168l657 1150h143l-831 -1448h-154z" />
<glyph unicode="W" horiz-adv-x="1999" d="M335 1448h143l108 -1171l6 -159h4l53 161l563 1169h160l107 -1171l6 -159h5l63 161l563 1169h136l-699 -1448h-171l-116 1101l-11 160h-6l-589 -1261h-172z" />
<glyph unicode="X" horiz-adv-x="1313" d="M41 0l679 768l-364 680h169l267 -524l29 -68h4l50 68l469 524h170l-622 -680l387 -768h-164l-267 531l-60 140h-4l-105 -146l-468 -525h-170z" />
<glyph unicode="Y" horiz-adv-x="1279" d="M314 1448h156l272 -641l34 -85l606 726h171l-732 -844l-122 -604h-136l122 604z" />
<glyph unicode="Z" horiz-adv-x="1161" d="M103 0l27 128l1026 1202h-765l23 118h908l-27 -139l-1011 -1189v-4l800 2l-25 -118h-956z" />
<glyph unicode="[" horiz-adv-x="681" d="M114 -453l387 1901h372l-23 -118h-228l-338 -1665h227l-25 -118h-372z" />
<glyph unicode="\" horiz-adv-x="1255" d="M460 1448l99 37l432 -1973l-99 -37z" />
<glyph unicode="]" horiz-adv-x="681" d="M10 -453l25 118h228l339 1665h-227l22 118h373l-387 -1901h-373z" />
<glyph unicode="^" horiz-adv-x="1091" d="M298 896l548 581l312 -581h-110l-229 426l-403 -426h-118z" />
<glyph unicode="_" horiz-adv-x="1198" d="M0 -354h1200v-99h-1200v99z" />
<glyph unicode="`" horiz-adv-x="702" d="M484 1563h189l128 -274h-100z" />
<glyph unicode="a" horiz-adv-x="1077" d="M152 240q0 91 45.5 173t139.5 139q41 25 91 43t97 28t104 15.5t102.5 7t101.5 1.5h79l6 38q8 37 11 62.5t2 58.5t-12 60.5t-33 49.5q-52 52 -158 52q-173 0 -329 -80l25 123q165 67 320 67q157 0 243 -83q74 -74 74 -199q0 -52 -13 -113l-91 -452l-41 -231h-115l36 180 h-4q-15 -20 -26.5 -34t-30 -33.5t-41 -37t-48.5 -32.5q-102 -59 -243 -59q-140 0 -215 65q-77 74 -77 191zM298 244q0 -67 45 -110q28 -26 61 -33.5t74 -7.5q59 0 107.5 13t89 38.5t77.5 66.5q55 57 79.5 114t41.5 137l17 75h-118q-122 0 -203.5 -14t-148.5 -57 q-122 -79 -122 -222z" />
<glyph unicode="b" horiz-adv-x="1172" d="M166 0l49 205l279 1372h130l-142 -706q141 207 368 207q174 0 271 -123q83 -109 83 -284q0 -141 -46 -275.5t-130 -231.5q-159 -180 -379 -180q-13 0 -27.5 1t-42 6t-52.5 14t-54.5 26.5t-53.5 41.5t-45 62t-33 84h-6l-47 -219h-122zM399 397q0 -140 71 -223 q64 -81 175 -81q29 0 58.5 6t63 20.5t65.5 36.5t64.5 55.5t60.5 76.5q55 84 83 187t28 198q0 44 -12.5 99t-44.5 101q-34 48 -84.5 71.5t-107.5 23.5q-54 0 -108.5 -22t-102.5 -60.5t-87 -91.5q-55 -76 -88.5 -182.5t-33.5 -214.5z" />
<glyph unicode="c" horiz-adv-x="959" d="M195 418q0 139 52.5 264t143.5 216q177 180 451 180q129 0 259 -42l-29 -116q-109 48 -230 48q-211 0 -354 -153q-74 -80 -115.5 -185.5t-41.5 -217.5q0 -149 85 -228q91 -91 257 -91q121 0 239 43l-10 -111q-117 -41 -247 -41q-259 0 -384 170q-76 106 -76 264z" />
<glyph unicode="d" horiz-adv-x="1170" d="M184 377q0 300 163 502q158 199 389 199q132 0 215 -73q66 -62 93 -134l144 706h130l-280 -1372l-33 -205h-122l44 219h-7q-71 -111 -174 -174q-99 -61 -217 -61q-154 0 -243 89q-102 102 -102 304zM318 371q0 -125 44 -187q61 -91 184 -91q26 0 51 3t65.5 16.5t77 36 t79 66t77.5 101.5q91 156 91 348q0 47 -11.5 104.5t-40.5 102.5q-35 47 -86.5 72t-108.5 25q-53 0 -105.5 -19.5t-107.5 -64.5t-99 -112q-110 -170 -110 -401z" />
<glyph unicode="e" horiz-adv-x="1052" d="M184 414q0 129 42.5 250.5t127.5 218.5q171 195 414 195q163 0 252 -89q43 -42 66 -96t26 -114q1 -24 1 -46q-1 -33 -3 -63q-4 -50 -16 -107l-14 -71h-749q-11 -51 -11 -100q0 -38 7 -76q15 -86 62 -140q72 -83 225 -83q176 0 319 69l-25 -121q-142 -57 -306 -57 q-225 0 -331 138q-87 106 -87 292zM354 602h612q19 76 19 136q0 105 -58 166q-61 64 -172 64q-162 0 -273 -122q-90 -102 -128 -244z" />
<glyph unicode="f" horiz-adv-x="754" d="M269 951l21 111h221l46 217q17 85 43 138q27 53 75 95q86 71 215 71q65 0 124 -22l-23 -107q-60 19 -105 19q-79 0 -128 -44q-49 -46 -69 -140l-48 -227h251l-21 -111h-251l-194 -951h-130l194 951h-221z" />
<glyph unicode="g" horiz-adv-x="1174" d="M110 -405l36 126q137 -75 278 -75q103 0 190 33.5t144 89.5q74 77 115 245l37 176q-24 -33 -60.5 -71t-67.5 -61q-93 -74 -245 -74q-157 0 -251 99q-102 120 -102 318q0 141 45 270t125 223q158 184 390 184q13 0 27 -1t40.5 -6.5t51 -14.5t54.5 -26.5t54 -41.5 t45.5 -61.5t33.5 -84.5h7l46 220h121l-49 -206l-174 -854q-6 -27 -11 -46t-14 -48t-18 -52t-23 -51t-30.5 -51.5t-38.5 -48t-47 -44.5q-48 -40 -113 -68t-142 -42.5t-163 -14.5q-148 0 -291 59zM320 403q0 -29 3 -61t18 -83.5t40 -84.5q57 -81 169 -81q28 0 55.5 3.5 t68.5 17.5t77.5 37t78 66t74.5 101q22 40 39 83.5t28 87.5t16.5 87t5.5 84q0 139 -64.5 223.5t-180.5 84.5q-87 0 -171 -45t-149 -143q-51 -76 -79.5 -174t-28.5 -203z" />
<glyph unicode="h" horiz-adv-x="1161" d="M166 0l320 1577h130l-101 -503l-57 -232h4q65 105 162 169q109 67 230 67q129 0 212 -73q86 -74 86 -206q0 -41 -19 -139l-134 -660h-130l132 653q1 5 6 33.5t7 39t4 31.5t2 37q0 84 -54 130q-48 44 -143 44q-36 0 -68 -5.5t-62 -17.5t-59 -29.5t-59 -42.5 q-123 -109 -153 -255l-126 -618h-130z" />
<glyph unicode="i" horiz-adv-x="472" d="M172 0l215 1062h130l-215 -1062h-130zM442 1366l36 165h142l-34 -165h-144z" />
<glyph unicode="j" horiz-adv-x="460" d="M-152 -434l24 105q41 -12 91 -12q56 0 91 25q25 14 43.5 47.5t34.5 102.5l249 1228h130l-246 -1216q-30 -122 -62 -177q-39 -63 -103 -91t-139 -28q-62 0 -113 16zM444 1370l34 165h130l-33 -165h-131z" />
<glyph unicode="k" horiz-adv-x="992" d="M166 0l320 1577h130l-200 -983h10l569 468h176l-625 -499l451 -563h-170l-415 521h-11l-105 -521h-130z" />
<glyph unicode="l" horiz-adv-x="460" d="M166 0l320 1577h130l-320 -1577h-130z" />
<glyph unicode="m" horiz-adv-x="1765" d="M172 0l175 861l34 201h128l-41 -208h4q63 102 155 162q89 62 204 62q61 0 107.5 -15t85.5 -54q68 -63 68 -155h4q35 52 73.5 92t94.5 72q27 18 53.5 29.5t53.5 18t53.5 9.5t58.5 3q128 0 205 -67q76 -72 76 -190q0 -41 -14 -114l-145 -707h-130l143 701q16 67 16 104 q0 43 -19 78q-15 34 -53 59.5t-104 25.5q-134 0 -238 -91q-110 -97 -140 -259l-127 -618h-130l143 701q15 59 15 91q0 36 -19 83q-43 93 -161 93q-122 0 -232 -99q-113 -106 -141 -251l-126 -618h-130z" />
<glyph unicode="n" horiz-adv-x="1166" d="M172 0l165 817l44 245h116l-44 -220h5q65 105 156 165q107 71 240 71q45 0 80 -6t71 -22t67 -43q84 -71 84 -204q0 -63 -17 -143l-134 -660h-130l132 653q15 63 15 117q0 47 -15 91q-15 42 -60 74.5t-126 32.5q-129 0 -235 -89q-53 -44 -96.5 -110t-61.5 -151l-126 -618 h-130z" />
<glyph unicode="o" horiz-adv-x="1159" d="M188 405q0 133 49.5 264.5t141.5 230.5q161 178 413 178q184 0 290 -110q108 -108 108 -317q0 -231 -124 -416q-91 -132 -211.5 -191.5t-275.5 -59.5q-182 0 -287 115q-104 123 -104 306zM325 397q0 -61 12.5 -110t31 -80t45 -54t50 -34t50.5 -17.5t41.5 -7.5t28.5 -1 q120 0 205 49.5t154 151.5q109 156 109 361q0 66 -12.5 119.5t-50.5 100.5q-75 93 -203 93q-194 0 -328 -169q-63 -81 -98 -184.5t-35 -217.5z" />
<glyph unicode="p" horiz-adv-x="1172" d="M81 -453l266 1309l34 206h124l-43 -220h6q22 43 53.5 81.5t77.5 74.5t110 58t137 22q182 0 281 -127q77 -107 77 -272q0 -242 -126 -441q-47 -70 -103 -121t-113 -79t-111 -41t-108 -13q-124 0 -209 72q-63 56 -89 134h-6l-17 -101l-111 -542h-130zM399 395 q0 -93 30.5 -162t84.5 -104.5t125 -35.5q30 0 59 5t66 19.5t70.5 38t69.5 63.5t67 93q48 84 72.5 177t24.5 180q0 125 -59 204q-66 95 -190 95q-87 0 -170.5 -50.5t-147.5 -151.5q-35 -56 -58.5 -122t-33.5 -127.5t-10 -121.5z" />
<glyph unicode="q" horiz-adv-x="1174" d="M186 391q0 140 45.5 274.5t130.5 232.5q156 180 372 180q122 0 203.5 -61.5t110.5 -174.5h6l49 220h121l-49 -206l-267 -1309h-130l130 643q-42 -60 -88.5 -102t-94 -64t-91.5 -31t-94 -9q-91 0 -157 28t-114 93q-83 108 -83 286zM322 389q0 -27 4 -56.5t17.5 -71 t35.5 -73.5q21 -29 49 -49.5t64.5 -33t78.5 -12.5q84 0 162.5 48t134.5 126t89.5 182.5t33.5 214.5q0 134 -71 224q-68 80 -176 80q-24 0 -47.5 -3.5t-58.5 -15.5t-67 -32t-69.5 -57t-69.5 -86q-55 -88 -82.5 -188.5t-27.5 -196.5z" />
<glyph unicode="r" horiz-adv-x="727" d="M174 0l175 867l32 195h124l-45 -229h2q20 49 57.5 100.5t78.5 86.5q72 58 172 58q55 0 111 -19l-25 -124q-58 22 -104 22q-101 0 -185 -84q-106 -102 -139 -263l-124 -610h-130z" />
<glyph unicode="s" horiz-adv-x="866" d="M110 37l32 119q129 -63 259 -63q138 0 221 77q69 68 69 161q0 43 -25 81q-9 12 -21 23t-29 21t-27.5 15.5t-32.5 16t-29 13.5q-128 58 -167 91q-87 69 -87 176q0 66 36.5 136t97.5 110q96 64 262 64q149 0 266 -56l-31 -104q-104 50 -240 50q-57 0 -97 -8.5t-79 -35.5 q-78 -50 -78 -144q0 -59 40.5 -93.5t151.5 -82.5q111 -51 160 -99q65 -72 65 -174q0 -154 -132 -256q-114 -91 -308 -91q-153 0 -277 53z" />
<glyph unicode="t" horiz-adv-x="727" d="M235 951l22 111h217l53 264l142 48l-65 -312h252l-21 -111h-251l-134 -651q-18 -80 -18 -114q0 -50 26 -70q25 -23 96 -23q59 0 117 23l-22 -110q-68 -22 -142 -22q-51 0 -91 10.5t-73 42.5q-43 44 -43 123q0 41 18 132l135 659h-218z" />
<glyph unicode="u" horiz-adv-x="1149" d="M227 275q0 53 19 143l131 644h130l-134 -663q-1 -3 -5 -22.5t-5.5 -28.5t-3 -28t-1.5 -38q0 -100 47 -144q52 -45 141 -45q139 0 244 97q25 21 50 50.5t55 86.5t42 119l125 616h130l-166 -820l-41 -242h-122l43 211h-2q-61 -95 -138 -149q-105 -78 -253 -78 q-121 0 -195 63q-35 29 -55.5 66.5t-28 75.5t-7.5 86z" />
<glyph unicode="v" horiz-adv-x="961" d="M257 1062h132l110 -867l4 -83h6l37 83l453 867h136l-572 -1062h-156z" />
<glyph unicode="w" horiz-adv-x="1635" d="M257 1062h130l73 -810l4 -142h6l61 142l418 810h164l91 -810l4 -142h6l63 142l399 810h134l-533 -1062h-164l-95 852l-2 99h-7l-43 -99l-443 -852h-163z" />
<glyph unicode="x" horiz-adv-x="1017" d="M62 0l478 573l-240 489h158l140 -310l37 -99h2l320 409h156l-418 -501l262 -561h-161l-159 383l-33 95h-2l-73 -95l-314 -383h-153z" />
<glyph unicode="y" horiz-adv-x="1021" d="M37 -436l36 116q73 -19 97 -19q18 0 34.5 3.5t31 11.5t26.5 16t25 22.5t21 24.5t20 28.5t18 28.5l18 30l74 139l-161 1097h135l115 -812l10 -106l7 2l488 916h143l-717 -1302q-28 -52 -55 -88t-62.5 -66.5t-79.5 -46t-97 -15.5q-52 0 -127 20z" />
<glyph unicode="z" horiz-adv-x="983" d="M116 0l22 107l695 737l108 107h-621l21 111h760l-25 -125l-689 -726l-103 -101h651l-23 -110h-796z" />
<glyph unicode="{" horiz-adv-x="711" d="M209 515l16 89q55 10 103 38.5t75 64.5q40 51 75 199q10 47 20 107.5t16 103t18 95t29 97.5q32 82 77.5 136.5t123.5 89.5q60 28 167 42l-19 -94q-84 -13 -124 -42q-41 -28 -62.5 -71t-36.5 -102q-14 -57 -21.5 -100t-17.5 -109.5t-28 -154.5q-29 -139 -87 -213 q-63 -79 -156 -110l-59 -18v-6l51 -20q21 -7 41 -19.5t41 -35.5t33.5 -60.5t12.5 -86.5q0 -33 -12.5 -97.5t-48.5 -217.5q-43 -166 -43 -233q0 -81 37 -114q31 -24 103 -37l-18 -94q-83 8 -146 48q-106 75 -106 213q0 40 10.5 97.5t40.5 184.5q9 35 14 55.5t11.5 51t10 52.5 t6 48.5t2.5 50.5q0 26 -2 42.5t-12 40t-28 42.5q-31 35 -107 47z" />
<glyph unicode="|" horiz-adv-x="661" d="M387 -579v2178h116v-2178h-116z" />
<glyph unicode="}" horiz-adv-x="711" d="M10 -458l19 94q85 13 125 42q40 28 61.5 71t36.5 103q13 51 35.5 188t30.5 175q15 71 38 128.5t66 106.5q59 64 141 87l57 20v6l-49 18q-57 21 -87 62q-42 56 -42 141q0 59 34 199q4 19 13.5 56t13.5 57q3 16 10 47t10 47q23 100 23 142q0 79 -37 112q-35 35 -104 39 l19 94q17 -2 31 -4.5t41.5 -10.5t49.5 -19t48 -31t43 -45.5t28.5 -64.5t11.5 -86q0 -9 -1 -19.5t-1.5 -19.5t-2.5 -23t-3.5 -22.5t-5 -26t-5.5 -26.5t-6.5 -31t-7 -31.5t-8.5 -37t-9 -39.5q-27 -126 -36.5 -179.5t-9.5 -90.5q0 -75 39 -115q39 -38 110 -51l-16 -89 q-55 -10 -103.5 -38.5t-75.5 -64.5q-38 -49 -73 -199q-8 -33 -31.5 -179.5t-51.5 -223.5q-33 -81 -75 -133t-116 -87q-66 -36 -178 -48z" />
<glyph unicode="~" horiz-adv-x="1109" d="M265 488q44 67 106 114q69 51 154 51q69 0 180 -47q2 -1 23.5 -10t28.5 -11.5t24.5 -8t32 -7.5t28.5 -2q17 0 35.5 3.5t40.5 13t44.5 28t40.5 43.5l67 -49q-48 -64 -95 -103q-79 -59 -166 -59q-79 0 -151 36q-7 2 -26.5 10.5t-26 11.5t-22.5 9.5t-24.5 8.5t-21.5 5.5 t-24.5 4.5t-22.5 1q-37 0 -82.5 -20t-82.5 -71z" />
<glyph unicode="&#xa3;" d="M235 0l26 118h213l124 610h-213l20 101h213l35 174q21 97 66 181t106 140q145 140 373 140q101 0 211 -31l-35 -122q-94 35 -197 35q-45 0 -80.5 -4.5t-69 -16t-63.5 -32t-58 -50.5q-50 -50 -75 -108t-45 -148l-31 -158h348l-21 -101h-348l-124 -610h509l-25 -118h-859z " />
<glyph unicode="&#xa4;" horiz-adv-x="1435" d="M246 192l196 197q-19 21 -36 46.5t-38.5 68t-34.5 101.5t-13 125q0 54 9.5 104t22.5 85t31 67.5t31.5 50.5t27.5 35l-196 196l83 82l196 -196q17 18 44 36.5t69.5 39.5t102.5 35t126 14q203 0 341 -125l197 196l83 -82l-197 -196q19 -21 36.5 -47t38.5 -68.5t34 -101.5 t13 -125t-13 -125t-34 -101.5t-38.5 -68t-36.5 -46.5l197 -197l-83 -82l-197 196q-138 -124 -341 -124q-53 0 -103.5 9.5t-87 23t-68.5 31.5t-51 32.5t-32 27.5l-196 -196zM430 730q0 -91 35 -174.5t93 -144t139 -96.5t169.5 -36t169.5 36t139.5 96.5t93 144t34.5 175 t-34.5 175t-93 143.5t-139.5 96t-169 36q-71 0 -137.5 -23t-120.5 -64.5t-94.5 -97t-62.5 -124t-22 -142.5z" />
<glyph unicode="&#xa6;" horiz-adv-x="661" d="M387 329h116v-908h-116v908zM387 691v908h116v-908h-116z" />
<glyph unicode="&#xa7;" horiz-adv-x="1204" d="M144 -385l44 128q143 -68 272 -68q63 0 115 13.5t108 54.5q49 39 73 85t24 110q0 68 -38.5 109.5t-147.5 88.5q-10 5 -63.5 27.5t-73 32.5t-53.5 31t-57 44q-99 90 -99 228q0 164 106 281q28 31 67.5 59.5t84 51t90.5 38.5q-93 66 -93 176q0 93 47 177t119 127 q127 76 288 76q71 0 154.5 -16.5t149.5 -45.5l-45 -124q-64 34 -133.5 51.5t-129.5 17.5q-49 0 -104.5 -14.5t-96.5 -42.5q-94 -63 -94 -186q0 -30 10 -54.5t25 -41.5t45 -34.5t54.5 -28.5t70.5 -29q55 -24 85.5 -38.5t75 -43t74.5 -59.5q47 -50 63 -96.5t16 -105.5 q0 -172 -123 -294q-79 -83 -225 -144v-2q100 -76 100 -206q0 -87 -49 -174t-148 -147q-117 -69 -270 -69q-147 0 -318 57zM395 519q0 -40 9.5 -70t27.5 -52.5t48 -45.5q26 -20 62 -37.5t114 -51.5q11 -5 17 -7l65 -30q118 44 199 133q93 106 93 219q0 36 -8.5 65t-26 52 t-46.5 44q-29 23 -82 48.5t-93 40.5l-67 25q-134 -25 -229 -124q-83 -88 -83 -209z" />
<glyph unicode="&#xa8;" horiz-adv-x="926" d="M442 1366l36 165h142l-34 -165h-144zM896 1366l35 165h143l-36 -165h-142z" />
<glyph unicode="&#xa9;" horiz-adv-x="1857" d="M312 724q0 155 60.5 296.5t163 243.5t244 163t296 61t296 -61t244 -163t163 -243.5t60.5 -296.5t-60.5 -296t-163 -243.5t-244 -163t-296 -60.5t-296 60.5t-244 163t-163 243.5t-60.5 296zM416 724q0 -109 33 -210t93.5 -182t141.5 -141.5t182 -93.5t210 -33 q136 0 258 51.5t210 139.5t139.5 210.5t51.5 258.5t-51.5 258.5t-139.5 210.5t-210 139.5t-258 51.5q-91 0 -177 -23.5t-158.5 -65.5t-133 -103t-102.5 -133t-65.5 -158t-23.5 -177zM679 637q0 117 42.5 226.5t126.5 184.5q137 125 350 125q105 0 207 -36l-21 -115 q-83 40 -180 40q-184 0 -290 -119q-99 -116 -99 -296q0 -110 56 -175q72 -85 209 -85q104 0 207 43l-4 -114q-97 -41 -207 -41q-192 0 -296 104q-101 101 -101 258z" />
<glyph unicode="&#xab;" horiz-adv-x="1031" d="M244 635l354 429h124l-345 -429l184 -428h-115zM606 635l354 429h124l-346 -429l184 -428h-113z" />
<glyph unicode="&#xac;" horiz-adv-x="1538" d="M273 835v116h1274v-558h-122v442h-1152z" />
<glyph unicode="&#xad;" horiz-adv-x="868" d="M308 497l23 109h455l-22 -109h-456z" />
<glyph unicode="&#xae;" horiz-adv-x="1940" d="M356 728q0 155 60.5 296.5t163 243.5t243.5 163t296 61t296.5 -61t243.5 -163t163 -243.5t61 -296.5t-61 -296t-163 -243.5t-243.5 -163t-296.5 -60.5t-296 60.5t-243.5 163t-163 243.5t-60.5 296zM460 728q0 -136 51.5 -258t139.5 -210t210 -139.5t258 -51.5t258.5 51.5 t210 139.5t139.5 210t52 258t-52 258.5t-139.5 210.5t-210 139.5t-258.5 51.5q-91 0 -177 -23.5t-158 -65.5t-132.5 -102.5t-103 -133t-65.5 -158.5t-23 -177zM768 273l181 900h259q34 0 58 -2.5t60.5 -14.5t63.5 -35q60 -54 60 -138q0 -41 -16 -84t-40 -74 q-31 -41 -78.5 -68.5t-103.5 -38.5v-6q39 -18 55 -41t28 -69l79 -329h-129l-82 333q-11 45 -28.5 60t-64.5 15h-102l-82 -408h-118zM991 784h114q107 0 172 64q51 52 51 116q0 54 -33 80q-31 26 -105 26h-142z" />
<glyph unicode="&#xaf;" horiz-adv-x="851" d="M448 1392l24 112h521l-22 -112h-523z" />
<glyph unicode="&#xb0;" horiz-adv-x="694" d="M369 1245.5q0 94.5 68 163t163 68.5t163 -68.5t68 -163t-68 -163t-163 -68.5t-163 68.5t-68 163zM456 1245q0 -39 19 -72.5t52 -52.5t73 -19q61 0 102.5 42t41.5 102.5t-41.5 102.5t-102.5 42t-102.5 -42t-41.5 -103z" />
<glyph unicode="&#xb1;" horiz-adv-x="1447" d="M184 87v116h1274v-116h-1274zM184 752v117h580v492h115v-492h579v-117h-579v-434h-115v434h-580z" />
<glyph unicode="&#xb4;" horiz-adv-x="709" d="M428 1289l241 274h194l-319 -274h-116z" />
<glyph unicode="&#xb6;" horiz-adv-x="1123" d="M397 1080q0 140 108 248q53 56 123.5 88t147.5 32h173l-386 -1901h-117l261 1280q-165 -7 -245 73q-65 65 -65 180zM707 -453l387 1901h116l-387 -1901h-116z" />
<glyph unicode="&#xb7;" horiz-adv-x="517" d="M235 738q0 48 23.5 88t63.5 63t88 23q73 0 123.5 -50.5t50.5 -123t-50.5 -123t-123.5 -50.5t-124 50.5t-51 122.5z" />
<glyph unicode="&#xb8;" horiz-adv-x="219" d="M20 -333l55 66q36 -27 79 -27q42 0 69 27q29 23 29 68q0 26 -19 45q-23 24 -63 24q-13 0 -42 -4l42 144h85l-20 -70q36 2 61 -11t35 -26q29 -28 29 -83q0 -79 -54 -136q-61 -61 -158 -61q-69 0 -128 44z" />
<glyph unicode="&#xbb;" horiz-adv-x="1034" d="M207 207l345 428l-183 429h113l203 -429l-354 -428h-124zM569 207l345 428l-184 429h114l202 -429l-353 -428h-124z" />
<glyph unicode="&#xf7;" horiz-adv-x="1581" d="M304 681v115h1275v-115h-1275zM817 299.5q0 51.5 36.5 88t88 36.5t88 -36.5t36.5 -88t-36.5 -87.5t-88 -36t-88 36t-36.5 87.5zM817 1176.5q0 51.5 36.5 88t88 36.5t88 -36.5t36.5 -88t-36.5 -88t-88 -36.5t-88 36.5t-36.5 88z" />
<glyph unicode="&#x2c6;" horiz-adv-x="942" d="M428 1289l284 274h157l171 -274h-130l-130 205l-213 -205h-139z" />
<glyph unicode="&#x2dc;" horiz-adv-x="924" d="M442 1366q12 77 68.5 125t130.5 48q61 0 151 -39q6 -3 23.5 -10.5t23.5 -9.5t18 -6.5t21 -5.5t18 -1q27 0 54 14.5t43 51.5h79q-12 -72 -62.5 -119.5t-132.5 -47.5q-59 0 -133 30q-4 2 -29 13t-34.5 15t-27 8.5t-31.5 4.5q-16 0 -33 -5.5t-36.5 -22.5t-31.5 -43h-79z" />
<glyph unicode="&#x2000;" horiz-adv-x="819" />
<glyph unicode="&#x2001;" horiz-adv-x="1638" />
<glyph unicode="&#x2002;" horiz-adv-x="819" />
<glyph unicode="&#x2003;" horiz-adv-x="1638" />
<glyph unicode="&#x2004;" horiz-adv-x="546" />
<glyph unicode="&#x2005;" horiz-adv-x="409" />
<glyph unicode="&#x2006;" horiz-adv-x="273" />
<glyph unicode="&#x2007;" horiz-adv-x="273" />
<glyph unicode="&#x2008;" horiz-adv-x="204" />
<glyph unicode="&#x2009;" horiz-adv-x="327" />
<glyph unicode="&#x200a;" horiz-adv-x="91" />
<glyph unicode="&#x2010;" horiz-adv-x="868" d="M308 497l23 109h455l-22 -109h-456z" />
<glyph unicode="&#x2011;" horiz-adv-x="868" d="M308 497l23 109h455l-22 -109h-456z" />
<glyph unicode="&#x2012;" horiz-adv-x="868" d="M308 497l23 109h455l-22 -109h-456z" />
<glyph unicode="&#x2013;" horiz-adv-x="1323" d="M269 606l23 116h1034l-23 -116h-1034z" />
<glyph unicode="&#x2014;" horiz-adv-x="1563" d="M269 606l23 116h1274l-23 -116h-1274z" />
<glyph unicode="&#x2018;" horiz-adv-x="626" d="M369 997l243 451h143l-205 -451h-181z" />
<glyph unicode="&#x2019;" horiz-adv-x="501" d="M306 997l205 451h182l-245 -451h-142z" />
<glyph unicode="&#x201a;" horiz-adv-x="647" d="M122 -267l205 451h182l-244 -451h-143z" />
<glyph unicode="&#x201c;" horiz-adv-x="859" d="M306 997l244 451h143l-205 -451h-182zM664 997l244 451h142l-204 -451h-182z" />
<glyph unicode="&#x201d;" horiz-adv-x="859" d="M306 997l205 451h182l-245 -451h-142zM664 997l205 451h181l-243 -451h-143z" />
<glyph unicode="&#x201e;" horiz-adv-x="859" d="M49 -267l206 451h181l-244 -451h-143zM407 -267l205 451h182l-244 -451h-143z" />
<glyph unicode="&#x2022;" horiz-adv-x="785" d="M296 738.5q0 102.5 73 175.5t175.5 73t175 -73t72.5 -175.5t-72.5 -175.5t-175 -73t-175.5 73t-73 175.5z" />
<glyph unicode="&#x2026;" horiz-adv-x="1129" d="M103 0l35 178h170l-35 -178h-170zM480 0l35 178h170l-36 -178h-169zM856 0l36 178h170l-36 -178h-170z" />
<glyph unicode="&#x202f;" horiz-adv-x="327" />
<glyph unicode="&#x2039;" horiz-adv-x="671" d="M244 633l354 429h124l-345 -429l184 -428h-115z" />
<glyph unicode="&#x203a;" horiz-adv-x="600" d="M207 205l271 428l-271 429h118l289 -429l-289 -428h-118z" />
<glyph unicode="&#x205f;" horiz-adv-x="409" />
<glyph unicode="&#x20ac;" d="M103 548l55 116h117q4 55 13.5 100t15.5 55h-144l51 116h130q85 217 265 362q114 89 244 128t285 39q172 0 321 -53l-37 -124q-64 25 -132.5 39.5t-101 17t-56.5 2.5q-76 0 -147 -13.5t-141.5 -44.5t-131.5 -78t-115.5 -117t-94.5 -158h765l-52 -116h-759 q-25 -84 -31 -155h722l-52 -116h-674q2 -99 35.5 -186t88.5 -143q119 -118 321 -118q46 0 95.5 5t96 14.5t90 22t81.5 27.5l-26 -131q-53 -15 -87 -23.5t-112 -20t-151 -11.5q-286 0 -432 158q-71 77 -109 188.5t-38 217.5h-168z" />
<glyph unicode="&#x2122;" horiz-adv-x="1908" d="M273 1356l19 92h604l-19 -92h-253l-156 -777h-99l156 777h-252zM842 579l176 869h157l149 -693l4 -104h2l46 104l430 693h152l-175 -869h-99l136 672l35 119h-4l-68 -117l-427 -674h-88l-149 680l-16 111h-5l-20 -119l-137 -672h-99z" />
<glyph unicode="&#xe000;" horiz-adv-x="1064" d="M0 0v1066h1066v-1066h-1066z" />
</font>
</defs>
</svg>
